# xmcd CD database file
#
# Track frame offsets:
#	150
#	17517
#	35181
#	51949
#	68753
#	84345
#	100276
#	114412
#	132142
#	149773
#	165818
#	183527
#
# Disc length: 2652 seconds
#
# Revision: 0
# Processed by: cddbd v1.5.2PL0 Copyright (c) Steve Scherf et al.
# Submitted via: CDex 1.70beta2
#
DISCID=9f0a5a0c
DTITLE=Elvis Blue - Elvis Blue CD 1
DYEAR=2010
DGENRE=Country
TTITLE0=Save Me
TTITLE1=Lighthouse
TTITLE2=I'm On Fire
TTITLE3=Things My Father Said
TTITLE4=Only Wanna Be With You
TTITLE5=Say Goodbye
TTITLE6=Little Hero
TTITLE7=Lately
TTITLE8=Right Here, Right Now
TTITLE9=Lover
TTITLE10=Stay
TTITLE11=Believe
EXTD=YEAR: 2010
EXTT0=
EXTT1=
EXTT2=
EXTT3=
EXTT4=
EXTT5=
EXTT6=
EXTT7=
EXTT8=
EXTT9=
EXTT10=
EXTT11=
PLAYORDER=
